<svg width="26" height="26" viewBox="0 0 26 26" fill="none" xmlns="http://www.w3.org/2000/svg">
<path d="M23.806 4.81699C23.806 4.81699 23.9891 2.96155 23.541 2.51353M23.541 2.51353C23.0904 2.06287 21.2379 2.25012 21.2379 2.25012M23.541 2.51353L20.7242 5.33037" stroke="black" stroke-width="1.87131" stroke-linecap="round" stroke-linejoin="round"/>
<path d="M23.806 20.3985C23.806 20.3985 23.9891 22.2539 23.541 22.702M23.541 22.702C23.0904 23.1527 21.2379 22.9654 21.2379 22.9654M23.541 22.702L20.7242 19.8851" stroke="black" stroke-width="1.87131" stroke-linecap="round" stroke-linejoin="round"/>
<path d="M3.35039 2.51352L6.16726 5.33037M3.35039 2.51352C3.80106 2.06287 5.65362 2.25012 5.65362 2.25012M3.35039 2.51352C2.90237 2.96155 3.08543 4.81698 3.08543 4.81698" stroke="black" stroke-width="1.87131" stroke-linecap="round" stroke-linejoin="round"/>
<path d="M3.35039 22.702L6.16726 19.8851M3.35039 22.702C3.80106 23.1527 5.65362 22.9654 5.65362 22.9654M3.35039 22.702C2.90237 22.254 3.08543 20.3986 3.08543 20.3986" stroke="black" stroke-width="1.87131" stroke-linecap="round" stroke-linejoin="round"/>
<path d="M20.7222 12.6078C20.7222 16.6269 17.464 19.8851 13.4449 19.8851C9.42572 19.8851 6.16755 16.6269 6.16755 12.6078C6.16755 8.58862 9.42572 5.33044 13.4449 5.33044C17.464 5.33044 20.7222 8.58862 20.7222 12.6078Z" stroke="black" stroke-width="1.87131"/>
<path d="M13.3568 9.80213C12.2085 9.80213 11.367 10.4697 11.367 11.2445C11.367 12.0193 11.9095 12.5037 13.4462 12.5037C15.1389 12.5037 15.5255 13.2755 15.5255 14.0503C15.5255 14.825 14.7856 15.437 13.3568 15.437M13.3568 9.80213C14.2621 9.80213 14.7406 10.1191 15.1185 10.5457M13.3568 9.80213V8.92444M13.3568 15.437C12.4515 15.437 12.0995 15.2581 11.6009 14.807M13.3568 15.437V16.2556" stroke="black" stroke-width="1.87131" stroke-linecap="round"/>
</svg>
