<svg width="25" height="26" viewBox="0 0 25 26" fill="none" xmlns="http://www.w3.org/2000/svg">
<path d="M4.20731 16.3663L4.20731 20.5248" stroke="#555F75" stroke-width="1.87131" stroke-linecap="round" stroke-linejoin="round"/>
<path d="M12.5242 10.1285L12.5242 20.5247" stroke="#555F75" stroke-width="1.87131" stroke-linecap="round" stroke-linejoin="round"/>
<path d="M22.9204 23.6437L2.12806 23.6437" stroke="#555F75" stroke-width="1.87131" stroke-linecap="round" stroke-linejoin="round"/>
<path d="M20.8412 14.2871L20.8412 20.5248" stroke="#555F75" stroke-width="1.87131" stroke-linecap="round" stroke-linejoin="round"/>
<path d="M5.87078 9.92053C5.49144 9.41555 4.88752 9.08891 4.2073 9.08891C3.05897 9.08891 2.12806 10.0198 2.12806 11.1681C2.12806 12.3165 3.05897 13.2474 4.2073 13.2474C5.35563 13.2474 6.28653 12.3165 6.28653 11.1681C6.28653 10.7 6.13184 10.268 5.87078 9.92053ZM5.87078 9.92053L10.8608 6.17805M10.8608 6.17805C11.2401 6.68303 11.844 7.00967 12.5242 7.00967C13.3383 7.00967 14.043 6.5419 14.3844 5.8605M10.8608 6.17805C10.5997 5.83053 10.445 5.39855 10.445 4.93043C10.445 3.7821 11.3759 2.8512 12.5242 2.8512C13.6726 2.8512 14.6035 3.7821 14.6035 4.93043C14.6035 5.26475 14.5246 5.58064 14.3844 5.8605M14.3844 5.8605L18.9811 8.15884M18.9811 8.15884C18.8409 8.4387 18.762 8.75459 18.762 9.08891C18.762 10.2372 19.6929 11.1681 20.8412 11.1681C21.9895 11.1681 22.9204 10.2372 22.9204 9.08891C22.9204 7.94058 21.9895 7.00967 20.8412 7.00967C20.0272 7.00967 19.3224 7.47744 18.9811 8.15884Z" stroke="#555F75" stroke-width="1.87131"/>
</svg>
