<svg width="18" height="19" viewBox="0 0 18 19" fill="none" xmlns="http://www.w3.org/2000/svg">
<path d="M1.50189 7.17436C1.50189 6.27723 1.86368 5.72742 2.61236 5.31077L5.6943 3.59564C7.30922 2.69692 8.11668 2.24756 9.00189 2.24756C9.88711 2.24756 10.6946 2.69692 12.3095 3.59564L15.3914 5.31077C16.1401 5.72742 16.5019 6.27723 16.5019 7.17436C16.5019 7.41763 16.5019 7.53927 16.4753 7.63926C16.3358 8.16464 15.8597 8.24756 15.3999 8.24756H2.60385C2.14409 8.24756 1.66803 8.16464 1.52846 7.63926C1.50189 7.53927 1.50189 7.41763 1.50189 7.17436Z" stroke="#555F75" stroke-width="1.62181"/>
<path d="M8.99589 5.99756H9.00262" stroke="#555F75" stroke-width="1.49705" stroke-linecap="round" stroke-linejoin="round"/>
<path d="M2.99994 8.24756V14.6226M5.99994 8.24756V14.6226" stroke="#555F75" stroke-width="1.62181"/>
<path d="M12.0019 8.24756V14.6226M15.0019 8.24756V14.6226" stroke="#555F75" stroke-width="1.62181"/>
<path d="M14.2519 14.6226H3.75189C2.50925 14.6226 1.50189 15.6299 1.50189 16.8726C1.50189 17.0797 1.66978 17.2476 1.87689 17.2476H16.1269C16.334 17.2476 16.5019 17.0797 16.5019 16.8726C16.5019 15.6299 15.4945 14.6226 14.2519 14.6226Z" stroke="#555F75" stroke-width="1.62181"/>
</svg>
