<svg width="26" height="26" viewBox="0 0 26 26" fill="none" xmlns="http://www.w3.org/2000/svg">
<path d="M11.1408 3.71927C12.6181 3.02668 14.2737 3.02668 15.751 3.71927L22.7073 6.98055C24.2204 7.68994 24.2204 10.1456 22.7073 10.855L15.7511 14.1162C14.2738 14.8088 12.6182 14.8088 11.1409 14.1162L4.18459 10.8549C2.67146 10.1455 2.67147 7.68989 4.1846 6.9805L11.1408 3.71927Z" stroke="black" stroke-width="1.87131"/>
<path d="M3.04975 8.91772V14.6356" stroke="black" stroke-width="1.87131" stroke-linecap="round"/>
<path d="M20.7233 12.0366V17.3651C20.7233 18.4131 20.1998 19.3942 19.283 19.9019C17.7565 20.7473 15.3131 21.913 13.4459 21.913C11.5788 21.913 9.13537 20.7473 7.60882 19.9019C6.69206 19.3942 6.1686 18.4131 6.1686 17.3651V12.0366" stroke="black" stroke-width="1.87131" stroke-linecap="round"/>
</svg>
