<svg width="26" height="26" viewBox="0 0 26 26" fill="none" xmlns="http://www.w3.org/2000/svg">
<path d="M16.7477 23.8175V22.7901L16.7477 22.7683C16.753 22.2017 17.2175 21.7436 17.7922 21.7383L17.8701 21.7382C19.3585 21.7264 20.6371 20.6927 20.9408 19.2557L20.9518 19.2017L21.4916 16.5402L22.4702 16.0577C22.9939 15.7994 23.2557 15.6703 23.3124 15.4336C23.369 15.1969 23.1934 14.9659 22.8421 14.504L20.8591 11.8966C20.6617 11.6371 20.563 11.5073 20.5102 11.3701C20.4573 11.2328 20.4411 11.0383 20.4085 10.6492C20.0515 6.38008 16.4249 3.02515 12.0037 3.02515C7.34596 3.02515 3.57009 6.74877 3.57009 11.3421C3.57009 14.2007 5.03251 16.7225 7.25981 18.2195M7.25981 18.2195V23.8175M7.25981 18.2195C7.90422 18.6526 8.61265 19 9.36822 19.2449" stroke="black" stroke-width="1.87131" stroke-linecap="round" stroke-linejoin="round"/>
<path d="M15.5243 10.3025L16.4807 11.1268C16.8827 11.4733 17.0838 11.6466 17.0838 11.8619C17.0838 12.0772 16.8827 12.2505 16.4807 12.597L15.5243 13.4213" stroke="black" stroke-width="1.87131" stroke-linecap="round" stroke-linejoin="round"/>
<path d="M8.24866 10.3025L7.29231 11.1268C6.89025 11.4733 6.68923 11.6466 6.68923 11.8619C6.68923 12.0772 6.89025 12.2505 7.2923 12.597L8.24866 13.4213" stroke="black" stroke-width="1.87131" stroke-linecap="round" stroke-linejoin="round"/>
<path d="M12.9247 9.2627L10.8455 14.4608" stroke="black" stroke-width="1.87131" stroke-linecap="round" stroke-linejoin="round"/>
</svg>
