<svg width="26" height="26" viewBox="0 0 26 26" fill="none" xmlns="http://www.w3.org/2000/svg">
<path d="M3.04864 13.3819C3.04864 8.4811 3.04864 6.03069 4.57112 4.5082C6.09361 2.98572 8.54401 2.98572 13.4448 2.98572C18.3456 2.98572 20.796 2.98572 22.3185 4.5082C23.841 6.03069 23.841 8.4811 23.841 13.3819C23.841 18.2827 23.841 20.7331 22.3185 22.2556C20.796 23.7781 18.3456 23.7781 13.4448 23.7781C8.54401 23.7781 6.09361 23.7781 4.57112 22.2556C3.04864 20.7331 3.04864 18.2827 3.04864 13.3819Z" stroke="black" stroke-width="1.87131"/>
<path d="M8.24785 15.4611L10.6316 13.0774C11.0376 12.6714 11.6958 12.6714 12.1018 13.0774L13.7504 14.726C14.1564 15.132 14.8147 15.132 15.2207 14.726L18.644 11.3026M18.644 11.3026V13.9017M18.644 11.3026H16.045" stroke="black" stroke-width="1.87131" stroke-linecap="round" stroke-linejoin="round"/>
</svg>
