<svg width="26" height="25" viewBox="0 0 26 25" fill="none" xmlns="http://www.w3.org/2000/svg">
<path fill-rule="evenodd" clip-rule="evenodd" d="M12.574 3.89854C12.2293 3.89854 11.8988 4.03545 11.6551 4.27916C11.4146 4.51964 11.2781 4.84467 11.2745 5.18438C11.2771 5.33717 11.2345 5.48722 11.1535 5.61531C11.0949 5.708 11.0163 5.78919 10.9202 5.85159C10.8862 5.87371 10.8505 5.89327 10.8132 5.90998C9.75361 6.41429 8.85027 7.19619 8.19923 8.17275C7.54844 9.14893 7.17416 10.283 7.11596 11.4546V14.5546C7.11596 14.5859 7.11407 14.6172 7.11031 14.6483C7.0174 15.4159 6.74558 16.1508 6.31672 16.7941C6.29438 16.8276 6.27164 16.8609 6.24852 16.8938H18.8994C18.8763 16.8609 18.8535 16.8276 18.8312 16.7941C18.4023 16.1508 18.1305 15.4159 18.0376 14.6483C18.0338 14.6172 18.032 14.5859 18.032 14.5546V11.4546C17.9738 10.283 17.5995 9.14893 16.9487 8.17275C16.2946 7.19163 15.3859 6.407 14.3199 5.90295C14.0473 5.77406 13.8735 5.49957 13.8735 5.19806C13.8735 4.85341 13.7366 4.52287 13.4929 4.27916C13.2491 4.03545 12.9186 3.89854 12.574 3.89854ZM9.75918 4.69734C9.86098 4.12508 10.1357 3.59311 10.5524 3.17648C11.0885 2.64032 11.8157 2.33911 12.574 2.33911C13.3322 2.33911 14.0594 2.64032 14.5955 3.17648C15.0122 3.59311 15.2869 4.12508 15.3887 4.69734C16.5372 5.32129 17.5187 6.2165 18.2462 7.30773C19.0573 8.52432 19.522 9.93868 19.5905 11.3992C19.5911 11.4114 19.5914 11.4236 19.5914 11.4358V14.5052C19.6598 15.0143 19.8435 15.5013 20.1287 15.9291C20.4221 16.3693 20.8148 16.7343 21.2751 16.995C21.5832 17.1695 21.7351 17.5297 21.6449 17.8721C21.5547 18.2146 21.245 18.4532 20.8909 18.4532H4.257C3.90289 18.4532 3.59325 18.2146 3.50302 17.8721C3.4128 17.5297 3.56466 17.1695 3.8728 16.995C4.3331 16.7343 4.72577 16.3693 5.0192 15.9291C5.30438 15.5013 5.48807 15.0143 5.55653 14.5052V11.4358C5.55653 11.4236 5.55681 11.4114 5.55738 11.3992C5.62594 9.93868 6.09065 8.52432 6.9017 7.30773C7.62919 6.2165 8.61074 5.32128 9.75918 4.69734Z" fill="black"/>
<path fill-rule="evenodd" clip-rule="evenodd" d="M9.4551 16.8938C9.88572 16.8938 10.2348 17.2429 10.2348 17.6735V18.7131C10.2348 19.3335 10.4813 19.9285 10.9199 20.3671C11.3586 20.8058 11.9536 21.0522 12.574 21.0522C13.1943 21.0522 13.7893 20.8058 14.228 20.3671C14.6667 19.9285 14.9131 19.3335 14.9131 18.7131V17.6735C14.9131 17.2429 15.2622 16.8938 15.6928 16.8938C16.1234 16.8938 16.4725 17.2429 16.4725 17.6735V18.7131C16.4725 19.7471 16.0618 20.7387 15.3307 21.4698C14.5995 22.2009 13.6079 22.6117 12.574 22.6117C11.54 22.6117 10.5484 22.2009 9.81725 21.4698C9.08612 20.7387 8.67538 19.7471 8.67538 18.7131V17.6735C8.67538 17.2429 9.02447 16.8938 9.4551 16.8938Z" fill="black"/>
<g filter="url(#filter0_d_1_1463)">
<path d="M20.0592 6.23727C20.0592 7.61527 18.9421 8.73236 17.5641 8.73236C16.1861 8.73236 15.069 7.61527 15.069 6.23727C15.069 4.85927 16.1861 3.74219 17.5641 3.74219C18.9421 3.74219 20.0592 4.85927 20.0592 6.23727Z" fill="#DE2C41"/>
</g>
<defs>
<filter id="filter0_d_1_1463" x="12.5739" y="2.49464" width="9.98034" height="9.9804" filterUnits="userSpaceOnUse" color-interpolation-filters="sRGB">
<feFlood flood-opacity="0" result="BackgroundImageFix"/>
<feColorMatrix in="SourceAlpha" type="matrix" values="0 0 0 0 0 0 0 0 0 0 0 0 0 0 0 0 0 0 127 0" result="hardAlpha"/>
<feOffset dy="1.24754"/>
<feGaussianBlur stdDeviation="1.24754"/>
<feComposite in2="hardAlpha" operator="out"/>
<feColorMatrix type="matrix" values="0 0 0 0 0.894118 0 0 0 0 0.898039 0 0 0 0 0.905882 0 0 0 0.24 0"/>
<feBlend mode="normal" in2="BackgroundImageFix" result="effect1_dropShadow_1_1463"/>
<feBlend mode="normal" in="SourceGraphic" in2="effect1_dropShadow_1_1463" result="shape"/>
</filter>
</defs>
</svg>
