<svg width="26" height="26" viewBox="0 0 26 26" fill="none" xmlns="http://www.w3.org/2000/svg">
<path d="M5.13067 20.0946V9.08343C5.13067 6.11635 5.13067 4.63281 6.04416 3.71106C6.95765 2.78931 8.42789 2.78931 11.3684 2.78931H15.5269C18.4673 2.78931 19.9376 2.78931 20.8511 3.71106C21.7646 4.63281 21.7646 6.11635 21.7646 9.08343V20.0946C21.7646 21.6661 21.7646 22.4519 21.2843 22.7613C20.4995 23.2667 19.2862 22.2067 18.676 21.8219C18.1718 21.5039 17.9197 21.3449 17.6399 21.3358C17.3376 21.3258 17.081 21.4783 16.5362 21.8219L14.5496 23.0747C14.0137 23.4127 13.7458 23.5817 13.4476 23.5817C13.1495 23.5817 12.8815 23.4127 12.3456 23.0747L10.359 21.8219C9.85485 21.5039 9.60275 21.3449 9.32296 21.3358C9.02063 21.3258 8.76406 21.4783 8.21924 21.8219C7.60906 22.2067 6.39575 23.2667 5.61092 22.7613C5.13067 22.4519 5.13067 21.6661 5.13067 20.0946Z" stroke="black" stroke-width="1.87131" stroke-linecap="round" stroke-linejoin="round"/>
<path d="M12.4061 12.1459H9.2872" stroke="black" stroke-width="1.87131" stroke-linecap="round" stroke-linejoin="round"/>
<path d="M15.5252 7.9873L9.28752 7.9873" stroke="black" stroke-width="1.87131" stroke-linecap="round" stroke-linejoin="round"/>
</svg>
