<svg width="26" height="26" viewBox="0 0 26 26" fill="none" xmlns="http://www.w3.org/2000/svg">
<path d="M3.04864 15.3039C3.04864 11.3832 3.04864 9.42292 4.26662 8.20493C5.48461 6.98694 7.44494 6.98694 11.3656 6.98694H15.5241C19.4447 6.98694 21.405 6.98694 22.623 8.20493C23.841 9.42292 23.841 11.3832 23.841 15.3039C23.841 19.2245 23.841 21.1849 22.623 22.4029C21.405 23.6208 19.4447 23.6208 15.5241 23.6208H11.3656C7.44494 23.6208 5.48461 23.6208 4.26662 22.4029C3.04864 21.1849 3.04864 19.2245 3.04864 15.3039Z" stroke="black" stroke-width="1.87131"/>
<path d="M17.6039 6.98697C17.6039 5.02664 17.6039 4.04648 16.9949 3.43749C16.3859 2.82849 15.4057 2.82849 13.4454 2.82849C11.4851 2.82849 10.5049 2.82849 9.89591 3.43749C9.28692 4.04648 9.28692 5.02664 9.28692 6.98697" stroke="black" stroke-width="1.87131"/>
<path d="M13.4462 18.7693C14.5946 18.7693 15.5255 17.9935 15.5255 17.0366C15.5255 16.0796 14.5946 15.3039 13.4462 15.3039C12.2979 15.3039 11.367 14.5281 11.367 13.5712C11.367 12.6142 12.2979 11.8385 13.4462 11.8385M13.4462 18.7693C12.2979 18.7693 11.367 17.9935 11.367 17.0366M13.4462 18.7693V19.4623M13.4462 11.1454V11.8385M13.4462 11.8385C14.5946 11.8385 15.5255 12.6142 15.5255 13.5712" stroke="black" stroke-width="1.87131" stroke-linecap="round"/>
</svg>
