<svg width="18" height="19" viewBox="0 0 18 19" fill="none" xmlns="http://www.w3.org/2000/svg">
<path d="M10.5002 1.89258C10.0155 1.7942 9.51386 1.74255 9.00018 1.74255C4.85805 1.74255 1.50018 5.10042 1.50018 9.24255C1.50018 13.3847 4.85805 16.7426 9.00018 16.7426C13.1423 16.7426 16.5002 13.3847 16.5002 9.24255C16.5002 8.72888 16.4485 8.2272 16.3502 7.74255" stroke="#555F75" stroke-width="1.49705" stroke-linecap="round"/>
<path d="M8.99823 6.99268C8.16978 6.99268 7.49823 7.49635 7.49823 8.11768C7.49823 8.73898 8.16978 9.24268 8.99823 9.24268C9.82668 9.24268 10.4982 9.74638 10.4982 10.3677C10.4982 10.989 9.82668 11.4927 8.99823 11.4927M8.99823 6.99268C9.65133 6.99268 10.2069 7.30573 10.4129 7.74268M8.99823 6.99268V6.24268M8.99823 11.4927C8.34513 11.4927 7.78953 11.1796 7.58358 10.7427M8.99823 11.4927V12.2427" stroke="#555F75" stroke-width="1.49705" stroke-linecap="round"/>
<path d="M12.7482 5.49402L15.8801 2.36037M16.4982 5.1027L16.4096 2.78408C16.4096 2.2376 16.0833 1.89711 15.4889 1.85416L13.1458 1.74402" stroke="#555F75" stroke-width="1.49705" stroke-linecap="round" stroke-linejoin="round"/>
</svg>
