<svg width="36" height="36" viewBox="0 0 36 36" fill="none" xmlns="http://www.w3.org/2000/svg">
<path d="M8.89453 15.4685C7.45362 15.4685 6.27469 16.6474 6.27469 18.0883C6.27469 19.5293 7.45362 20.7082 8.89453 20.7082C10.3354 20.7082 11.5144 19.5293 11.5144 18.0883C11.5144 16.6474 10.3354 15.4685 8.89453 15.4685ZM27.2334 15.4685C25.7925 15.4685 24.6136 16.6474 24.6136 18.0883C24.6136 19.5293 25.7925 20.7082 27.2334 20.7082C28.6743 20.7082 29.8532 19.5293 29.8532 18.0883C29.8532 16.6474 28.6743 15.4685 27.2334 15.4685ZM18.064 15.4685C16.6231 15.4685 15.4441 16.6474 15.4441 18.0883C15.4441 19.5293 16.6231 20.7082 18.064 20.7082C19.5049 20.7082 20.6838 19.5293 20.6838 18.0883C20.6838 16.6474 19.5049 15.4685 18.064 15.4685Z" fill="black"/>
</svg>
