<svg width="26" height="25" viewBox="0 0 26 25" fill="none" xmlns="http://www.w3.org/2000/svg">
<path d="M15.3325 7.72762L15.3325 7.72763C16.0898 8.39023 16.5068 9.28052 16.5044 10.2336V10.2336C16.5044 11.6352 15.5805 12.8973 14.1478 13.4485L14.1478 13.4485C13.9244 13.5348 13.7322 13.6864 13.5962 13.8835C13.4602 14.0807 13.3868 14.3142 13.3855 14.5537V14.5537V15.1069C13.3855 15.206 13.3044 15.2872 13.2052 15.2872H12.0357C11.9365 15.2872 11.8554 15.206 11.8554 15.1069V14.583C11.8554 14.023 12.0202 13.4703 12.3377 13.0099C12.6503 12.5591 13.0865 12.215 13.6003 12.0187L13.6003 12.0187C14.4356 11.6978 14.9767 10.9987 14.9767 10.2336C14.9767 9.14864 13.9173 8.26974 12.6229 8.26974C11.3285 8.26974 10.2691 9.14864 10.2691 10.2336V10.4188C10.2691 10.518 10.188 10.5991 10.0888 10.5991H8.91925C8.82011 10.5991 8.73894 10.518 8.73894 10.4188V10.2336C8.73894 9.28053 9.15602 8.39023 9.91327 7.72763C10.6414 7.09169 11.6029 6.73955 12.6229 6.73955C13.6429 6.73955 14.6044 7.08928 15.3325 7.72762ZM14.1531 13.4621C15.5907 12.909 16.519 11.642 16.519 10.2336L12.3256 13.0016C12.0064 13.4646 11.8407 14.0201 11.8407 14.583V15.1069C11.8407 15.2141 11.9285 15.3018 12.0357 15.3018H13.2052C13.3125 15.3018 13.4002 15.2141 13.4002 15.1069V14.5537C13.4014 14.3172 13.4739 14.0865 13.6082 13.8918C13.7425 13.6971 13.9324 13.5474 14.1531 13.4621ZM1.72151 12.4753C1.72151 6.45523 6.6028 1.57395 12.6229 1.57395C18.643 1.57395 23.5243 6.45523 23.5243 12.4753C23.5243 18.4954 18.643 23.3767 12.6229 23.3767C6.6028 23.3767 1.72151 18.4954 1.72151 12.4753ZM3.5441 12.4753C3.5441 17.4882 7.61003 21.5541 12.6229 21.5541C17.6358 21.5541 21.7017 17.4882 21.7017 12.4753C21.7017 7.46246 17.6358 3.39653 12.6229 3.39653C7.61003 3.39653 3.5441 7.46246 3.5441 12.4753ZM11.9441 18.5147C11.764 18.3347 11.6629 18.0905 11.6629 17.8359C11.6629 17.5812 11.764 17.3371 11.9441 17.157C12.1241 16.977 12.3683 16.8758 12.6229 16.8758C12.8775 16.8758 13.1217 16.977 13.3017 17.157C13.4818 17.3371 13.5829 17.5812 13.5829 17.8359C13.5829 18.0905 13.4818 18.3347 13.3017 18.5147C13.1217 18.6947 12.8775 18.7959 12.6229 18.7959C12.3683 18.7959 12.1241 18.6947 11.9441 18.5147Z" fill="black" stroke="black" stroke-width="0.0292393"/>
</svg>
