<svg width="40" height="45" viewBox="0 0 40 45" fill="none" xmlns="http://www.w3.org/2000/svg">
<rect y="2.12756" width="39.9214" height="39.9214" rx="19.9607" fill="#0F0F10"/>
<g filter="url(#filter0_d_2_647)">
<path d="M13.8743 21.0002C12.5669 21.4258 11.8265 22.8617 12.5988 23.9993C13.3058 25.0406 14.2326 25.9271 15.3249 26.5901C17.1333 27.6879 19.2754 28.1006 21.3622 27.7533C23.4489 27.406 25.3419 26.3218 26.6973 24.6975C28.0527 23.0733 28.7805 21.0168 28.7486 18.9015C28.7167 16.7863 27.9272 14.7527 26.5234 13.17C25.1197 11.5874 23.1949 10.5607 21.0986 10.2765C19.0023 9.99236 16.8736 10.4695 15.0991 11.6213C14.0273 12.317 13.1277 13.2309 12.4524 14.2931C11.7147 15.4535 12.4981 16.8664 13.8178 17.2524C15.1375 17.6384 16.5012 16.7642 17.6033 15.9419C17.6704 15.8918 17.7394 15.8437 17.8101 15.7978C18.5849 15.2949 19.5144 15.0866 20.4297 15.2107C21.345 15.3348 22.1854 15.7831 22.7983 16.4741C23.4112 17.1651 23.756 18.0531 23.7699 18.9766C23.7838 19.9002 23.466 20.7981 22.8742 21.5073C22.2824 22.2165 21.4559 22.6899 20.5447 22.8416C19.6336 22.9932 18.6983 22.813 17.9087 22.3337C17.8367 22.29 17.7663 22.244 17.6976 22.1959C16.5713 21.4072 15.1818 20.5745 13.8743 21.0002Z" fill="white"/>
<path d="M12.2358 23.2214C12.2358 21.9369 13.2771 20.8955 14.5617 20.8955C15.8462 20.8955 16.8876 21.9369 16.8876 23.2214V31.5946C16.8876 32.8792 15.8462 33.9205 14.5617 33.9205C13.2771 33.9205 12.2358 32.8792 12.2358 31.5946V23.2214Z" fill="white"/>
<path d="M16.7066 21.8262C17.0016 22.0011 17.2889 22.1936 17.5642 22.3864C17.637 22.4374 17.7116 22.4862 17.788 22.5325C18.6252 23.0407 19.6169 23.2318 20.5829 23.071C21.549 22.9102 22.4253 22.4083 23.0528 21.6564C23.6803 20.9044 24.0172 19.9524 24.0025 18.9731C23.9877 17.9939 23.6222 17.0524 22.9723 16.3197C22.3225 15.5871 21.4314 15.1118 20.4609 14.9802C19.4904 14.8487 18.505 15.0695 17.6835 15.6027C17.6085 15.6514 17.5354 15.7024 17.4642 15.7555C16.9157 16.1647 16.3179 16.5746 15.7013 16.8362C15.0861 17.0972 14.4731 17.2018 13.8831 17.0292C13.2833 16.8537 12.811 16.4462 12.5723 15.9606C12.3359 15.4794 12.3276 14.923 12.6487 14.4179C13.3062 13.3837 14.1822 12.4937 15.2258 11.8163C16.9535 10.6949 19.0262 10.2303 21.0673 10.507C23.1085 10.7837 24.9826 11.7834 26.3494 13.3244C27.7162 14.8654 28.485 16.8455 28.5161 18.905C28.5471 20.9646 27.8384 22.967 26.5187 24.5485C25.199 26.13 23.3558 27.1857 21.324 27.5239C19.906 27.7598 18.4618 27.6354 17.1202 27.1755V23.2214C17.1202 22.7067 16.9682 22.2275 16.7066 21.8262ZM12.921 21.9212C13.171 21.6106 13.5249 21.3586 13.9463 21.2213C13.9705 21.2135 13.9948 21.2061 14.0191 21.1991C14.1921 21.1528 14.374 21.1281 14.5617 21.1281C15.7178 21.1281 16.655 22.0653 16.655 23.2214V27.0008C16.2387 26.8307 15.8342 26.6272 15.4456 26.3913C14.382 25.7457 13.4796 24.8826 12.7912 23.8686C12.4551 23.3735 12.4466 22.817 12.6684 22.329C12.6766 22.311 12.6851 22.2931 12.6938 22.2754C12.7577 22.1495 12.834 22.0309 12.921 21.9212ZM16.655 27.5012V31.5946C16.655 32.7507 15.7178 33.6879 14.5617 33.6879C13.4056 33.6879 12.4684 32.7507 12.4684 31.5946V24.2201C13.1858 25.2499 14.1148 26.1277 15.2042 26.789C15.6684 27.0708 16.1541 27.3086 16.655 27.5012Z" stroke="white" stroke-width="0.465178"/>
</g>
<path d="M19.7556 17.654L19.91 16.9687L20.0644 17.654C20.2021 18.2656 20.6798 18.7432 21.2914 18.881L21.9767 19.0354L21.2914 19.1897C20.6798 19.3275 20.2021 19.8051 20.0644 20.4168L19.91 21.102L19.7556 20.4168C19.6179 19.8051 19.1402 19.3275 18.5286 19.1897L17.8433 19.0354L18.5286 18.881C19.1402 18.7432 19.6179 18.2656 19.7556 17.654Z" fill="white" stroke="white" stroke-width="0.465178"/>
<mask id="path-5-inside-1_2_647" fill="white">
<path d="M18.5161 19.9647C18.5371 19.9647 18.5554 19.9793 18.56 19.9998L18.5923 20.1434C18.6159 20.2482 18.6978 20.33 18.8026 20.3536L18.9461 20.386C18.9667 20.3906 18.9813 20.4088 18.9813 20.4299C18.9813 20.451 18.9667 20.4692 18.9461 20.4738L18.8026 20.5062C18.6978 20.5298 18.6159 20.6116 18.5923 20.7164L18.56 20.86C18.5554 20.8805 18.5371 20.8951 18.5161 20.8951C18.495 20.8951 18.4768 20.8805 18.4722 20.86L18.4398 20.7164C18.4162 20.6116 18.3344 20.5298 18.2296 20.5062L18.086 20.4738C18.0655 20.4692 18.0509 20.451 18.0509 20.4299C18.0509 20.4088 18.0655 20.3906 18.086 20.386L18.2296 20.3536C18.3344 20.33 18.4162 20.2482 18.4398 20.1434L18.4722 19.9998C18.4768 19.9793 18.495 19.9647 18.5161 19.9647Z"/>
</mask>
<path d="M18.5161 19.9647C18.5371 19.9647 18.5554 19.9793 18.56 19.9998L18.5923 20.1434C18.6159 20.2482 18.6978 20.33 18.8026 20.3536L18.9461 20.386C18.9667 20.3906 18.9813 20.4088 18.9813 20.4299C18.9813 20.451 18.9667 20.4692 18.9461 20.4738L18.8026 20.5062C18.6978 20.5298 18.6159 20.6116 18.5923 20.7164L18.56 20.86C18.5554 20.8805 18.5371 20.8951 18.5161 20.8951C18.495 20.8951 18.4768 20.8805 18.4722 20.86L18.4398 20.7164C18.4162 20.6116 18.3344 20.5298 18.2296 20.5062L18.086 20.4738C18.0655 20.4692 18.0509 20.451 18.0509 20.4299C18.0509 20.4088 18.0655 20.3906 18.086 20.386L18.2296 20.3536C18.3344 20.33 18.4162 20.2482 18.4398 20.1434L18.4722 19.9998C18.4768 19.9793 18.495 19.9647 18.5161 19.9647Z" fill="white"/>
<path d="M18.56 19.9998L19.0138 19.8976L19.0138 19.8976L18.56 19.9998ZM18.5923 20.1434L19.0461 20.0412L19.0461 20.0412L18.5923 20.1434ZM18.8026 20.3536L18.7004 20.8075H18.7004L18.8026 20.3536ZM18.9461 20.386L19.0484 19.9322L19.0484 19.9322L18.9461 20.386ZM18.9461 20.4738L19.0484 20.9276L19.0484 20.9276L18.9461 20.4738ZM18.8026 20.5062L18.9048 20.96L18.9048 20.96L18.8026 20.5062ZM18.5923 20.7164L18.1385 20.6142L18.1385 20.6142L18.5923 20.7164ZM18.56 20.86L19.0138 20.9622L19.0138 20.9622L18.56 20.86ZM18.4722 20.86L18.0184 20.9622L18.0184 20.9622L18.4722 20.86ZM18.4398 20.7164L17.986 20.8186L18.4398 20.7164ZM18.2296 20.5062L18.1274 20.96H18.1274L18.2296 20.5062ZM18.086 20.4738L17.9838 20.9276L17.9838 20.9276L18.086 20.4738ZM18.086 20.386L18.1883 20.8398H18.1883L18.086 20.386ZM18.2296 20.3536L18.1274 19.8998L18.1274 19.8998L18.2296 20.3536ZM18.4398 20.1434L18.8936 20.2456L18.4398 20.1434ZM18.4722 19.9998L18.926 20.1021V20.1021L18.4722 19.9998ZM19.0138 19.8976C18.9614 19.6649 18.7547 19.4995 18.5161 19.4995V20.4299C18.3196 20.4299 18.1494 20.2937 18.1062 20.1021L19.0138 19.8976ZM19.0461 20.0412L19.0138 19.8976L18.1062 20.1021L18.1385 20.2456L19.0461 20.0412ZM18.9048 19.8998C18.9753 19.9157 19.0303 19.9707 19.0461 20.0412L18.1385 20.2456C18.2016 20.5257 18.4203 20.7444 18.7004 20.8075L18.9048 19.8998ZM19.0484 19.9322L18.9048 19.8998L18.7004 20.8075L18.8439 20.8398L19.0484 19.9322ZM19.4464 20.4299C19.4464 20.1913 19.2811 19.9846 19.0484 19.9322L18.8439 20.8398C18.6522 20.7966 18.5161 20.6264 18.5161 20.4299H19.4464ZM19.0484 20.9276C19.2811 20.8752 19.4464 20.6685 19.4464 20.4299H18.5161C18.5161 20.2334 18.6522 20.0632 18.8439 20.02L19.0484 20.9276ZM18.9048 20.96L19.0484 20.9276L18.8439 20.02L18.7004 20.0523L18.9048 20.96ZM19.0461 20.8186C19.0303 20.8891 18.9753 20.9441 18.9048 20.96L18.7004 20.0523C18.4203 20.1154 18.2016 20.3341 18.1385 20.6142L19.0461 20.8186ZM19.0138 20.9622L19.0461 20.8186L18.1385 20.6142L18.1062 20.7577L19.0138 20.9622ZM18.5161 21.3603C18.7547 21.3603 18.9614 21.1949 19.0138 20.9622L18.1062 20.7577C18.1494 20.5661 18.3196 20.4299 18.5161 20.4299V21.3603ZM18.0184 20.9622C18.0708 21.1949 18.2775 21.3603 18.5161 21.3603V20.4299C18.7126 20.4299 18.8828 20.5661 18.926 20.7577L18.0184 20.9622ZM17.986 20.8186L18.0184 20.9622L18.926 20.7577L18.8936 20.6142L17.986 20.8186ZM18.1274 20.96C18.0569 20.9441 18.0019 20.8891 17.986 20.8186L18.8936 20.6142C18.8306 20.3341 18.6119 20.1154 18.3318 20.0523L18.1274 20.96ZM17.9838 20.9276L18.1274 20.96L18.3318 20.0523L18.1883 20.02L17.9838 20.9276ZM17.5857 20.4299C17.5857 20.6685 17.7511 20.8752 17.9838 20.9276L18.1883 20.02C18.3799 20.0632 18.5161 20.2334 18.5161 20.4299H17.5857ZM17.9838 19.9322C17.7511 19.9846 17.5857 20.1913 17.5857 20.4299H18.5161C18.5161 20.6264 18.3799 20.7966 18.1883 20.8398L17.9838 19.9322ZM18.1274 19.8998L17.9838 19.9322L18.1883 20.8398L18.3318 20.8075L18.1274 19.8998ZM17.986 20.0412C18.0019 19.9707 18.0569 19.9157 18.1274 19.8998L18.3318 20.8075C18.6119 20.7444 18.8306 20.5257 18.8936 20.2456L17.986 20.0412ZM18.0184 19.8976L17.986 20.0412L18.8936 20.2456L18.926 20.1021L18.0184 19.8976ZM18.5161 19.4995C18.2775 19.4995 18.0708 19.6649 18.0184 19.8976L18.926 20.1021C18.8828 20.2937 18.7126 20.4299 18.5161 20.4299V19.4995Z" fill="white" mask="url(#path-5-inside-1_2_647)"/>
<defs>
<filter id="filter0_d_2_647" x="12.1681" y="10.1964" width="18.649" height="27.3422" filterUnits="userSpaceOnUse" color-interpolation-filters="sRGB">
<feFlood flood-opacity="0" result="BackgroundImageFix"/>
<feColorMatrix in="SourceAlpha" type="matrix" values="0 0 0 0 0 0 0 0 0 0 0 0 0 0 0 0 0 0 127 0" result="hardAlpha"/>
<feOffset dx="1.03373" dy="2.58432"/>
<feGaussianBlur stdDeviation="0.516865"/>
<feComposite in2="hardAlpha" operator="out"/>
<feColorMatrix type="matrix" values="0 0 0 0 0.1344 0 0 0 0 0.268614 0 0 0 0 0.8256 0 0 0 0.05 0"/>
<feBlend mode="normal" in2="BackgroundImageFix" result="effect1_dropShadow_2_647"/>
<feBlend mode="normal" in="SourceGraphic" in2="effect1_dropShadow_2_647" result="shape"/>
</filter>
</defs>
</svg>
