<svg width="26" height="26" viewBox="0 0 26 26" fill="none" xmlns="http://www.w3.org/2000/svg">
<path d="M15.5238 15.9417C15.5238 14.2192 16.9201 12.8228 18.6426 12.8228C20.3651 12.8228 21.7615 14.2192 21.7615 15.9417C21.7615 17.6642 20.3651 19.0605 18.6426 19.0605C16.9201 19.0605 15.5238 17.6642 15.5238 15.9417Z" stroke="black" stroke-width="1.87131"/>
<path d="M5.12926 10.7436C5.12926 12.4661 6.52562 13.8625 8.24811 13.8625C9.97061 13.8625 11.367 12.4661 11.367 10.7436C11.367 9.02112 9.97061 7.62476 8.24811 7.62476C6.52562 7.62476 5.12926 9.02112 5.12926 10.7436Z" stroke="black" stroke-width="1.87131"/>
<path d="M18.6014 10.2238L18.6014 2.94642" stroke="black" stroke-width="1.87131" stroke-linecap="round"/>
<path d="M8.20479 16.4614L8.20479 23.7388" stroke="black" stroke-width="1.87131" stroke-linecap="round"/>
<path d="M18.6014 23.7388L18.6014 21.6595" stroke="black" stroke-width="1.87131" stroke-linecap="round"/>
<path d="M8.20479 2.94641L8.20479 5.02565" stroke="black" stroke-width="1.87131" stroke-linecap="round"/>
</svg>
