<svg width="21" height="21" viewBox="0 0 21 21" fill="none" xmlns="http://www.w3.org/2000/svg">
<path fill-rule="evenodd" clip-rule="evenodd" d="M11.5082 2.67183C11.2581 1.64078 9.79109 1.64078 9.54096 2.67183C9.12932 4.36465 7.19454 5.16753 5.70426 4.26143C4.79705 3.70912 3.7593 4.74732 4.31131 5.65344C4.52203 5.99912 4.64817 6.38967 4.67946 6.79331C4.71076 7.19705 4.6463 7.60247 4.4913 7.97658C4.33631 8.35069 4.09517 8.68292 3.78751 8.94622C3.4799 9.20948 3.1145 9.39639 2.72102 9.49177C1.68997 9.7419 1.68997 11.2089 2.72102 11.459C3.11423 11.5546 3.47975 11.7418 3.78706 12.0051C4.09437 12.2684 4.33522 12.6004 4.49003 12.9743C4.64485 13.3482 4.70926 13.7533 4.67803 14.1568C4.6468 14.5603 4.52081 14.9507 4.3103 15.2963C3.75818 16.2034 4.79656 17.2407 5.70263 16.6887C6.04832 16.478 6.43887 16.3518 6.84251 16.3205C7.24624 16.2892 7.65166 16.3537 8.02577 16.5087C8.39989 16.6637 8.73211 16.9048 8.99542 17.2125C9.25867 17.5201 9.44559 17.8855 9.54096 18.279C9.79109 19.31 11.2581 19.31 11.5082 18.279C11.6038 17.8858 11.791 17.5202 12.0543 17.2129C12.3176 16.9056 12.6496 16.6648 13.0235 16.5099C13.3974 16.3551 13.8025 16.2907 14.206 16.322C14.6095 16.3532 14.9999 16.4792 15.3455 16.6897C16.2526 17.2418 17.2898 16.2034 16.7379 15.2973C16.5271 14.9517 16.401 14.5611 16.3697 14.1575C16.3384 13.7537 16.4029 13.3483 16.5579 12.9742C16.7129 12.6001 16.954 12.2679 17.2617 12.0046C17.5693 11.7413 17.9347 11.5544 18.3282 11.459C19.3592 11.2089 19.3592 9.7419 18.3282 9.49177C17.9349 9.39615 17.5694 9.20899 17.2621 8.94571C16.9548 8.68243 16.714 8.35036 16.5591 7.97647C16.4043 7.60259 16.3399 7.19745 16.3711 6.79399C16.4024 6.39053 16.5284 6.00013 16.7389 5.65453C17.291 4.74736 16.2526 3.71014 15.3465 4.26212C15.0009 4.47283 14.6103 4.59897 14.2067 4.63027C13.8029 4.66157 13.3975 4.5971 13.0234 4.44211C12.6493 4.28711 12.3171 4.04597 12.0538 3.73831C11.7905 3.43071 11.6036 3.06531 11.5082 2.67183ZM8.02559 2.30377C8.66151 -0.315911 12.3881 -0.315774 13.0237 2.30418C13.0612 2.45912 13.1349 2.60322 13.2385 2.72435C13.3422 2.84547 13.473 2.94041 13.6203 3.00143C13.7676 3.06245 13.9272 3.08783 14.0861 3.07551C14.2451 3.06318 14.3989 3.0135 14.535 2.93051C16.8371 1.52803 19.473 4.16246 18.0708 6.4656C17.9879 6.60166 17.9382 6.7555 17.9259 6.91434C17.9136 7.07318 17.939 7.23268 17.9999 7.37988C18.0609 7.52707 18.1557 7.65781 18.2767 7.76146C18.3976 7.86502 18.5412 7.93862 18.6958 7.9763C21.3159 8.61192 21.3159 12.3389 18.6958 12.9745C18.5409 13.012 18.3968 13.0857 18.2756 13.1893C18.1545 13.293 18.0596 13.4238 17.9986 13.5711C17.9375 13.7184 17.9122 13.878 17.9245 14.0369C17.9368 14.1959 17.9865 14.3497 18.0695 14.4858C19.472 16.7879 16.8375 19.4238 14.5344 18.0216C14.3983 17.9387 14.2445 17.889 14.0856 17.8767C13.9268 17.8644 13.7673 17.8898 13.6201 17.9507C13.4729 18.0117 13.3422 18.1065 13.2385 18.2275C13.135 18.3484 13.0614 18.492 13.0237 18.6466C12.3881 21.2667 8.66112 21.2667 8.02549 18.6466C7.98795 18.4917 7.9143 18.3476 7.81064 18.2264C7.70698 18.1053 7.57618 18.0104 7.4289 17.9494C7.28161 17.8883 7.122 17.863 6.96305 17.8753C6.80411 17.8876 6.65031 17.9373 6.51419 18.0203C4.21204 19.4228 1.57623 16.7883 2.97839 14.4852C3.06127 14.3491 3.11096 14.1953 3.12325 14.0364C3.13555 13.8776 3.11019 13.7181 3.04924 13.5709C2.98829 13.4237 2.89347 13.293 2.77248 13.1893C2.6516 13.0858 2.50802 13.0122 2.35337 12.9745C-0.266717 12.3389 -0.266717 8.61192 2.35337 7.9763C2.50832 7.93875 2.65242 7.86511 2.77354 7.76145C2.89467 7.65778 2.9896 7.52699 3.05062 7.3797C3.11164 7.23242 3.13702 7.07281 3.1247 6.91386C3.11238 6.75491 3.0627 6.60112 2.9797 6.465C1.57731 4.16298 4.21136 1.52733 6.5144 2.92896C7.10323 3.28697 7.86316 2.9706 8.02559 2.30377Z" fill="black"/>
<path fill-rule="evenodd" clip-rule="evenodd" d="M10.5246 8.13625C9.23272 8.13625 8.18545 9.18352 8.18545 10.4754C8.18545 11.7673 9.23272 12.8145 10.5246 12.8145C11.8165 12.8145 12.8637 11.7673 12.8637 10.4754C12.8637 9.18352 11.8165 8.13625 10.5246 8.13625ZM6.62602 10.4754C6.62602 8.32227 8.37147 6.57682 10.5246 6.57682C12.6777 6.57682 14.4232 8.32227 14.4232 10.4754C14.4232 12.6285 12.6777 14.374 10.5246 14.374C8.37147 14.374 6.62602 12.6285 6.62602 10.4754Z" fill="black"/>
</svg>
